# xmcd CD database file generated by OrangeCD 5.0
#
# Track frame offsets:
#	150
#	17625
#	33487
#	48600
#	71987
#	94797
#	116790
#	133300
#	157762
#	182720
#	210575
#	239617
#	260400
#	308395
#
# Disc length: 4404 seconds
#
# Revision: 1
# Processed by: cddbd v1.4PL0 Copyright (c) Steve Scherf et al.
# Submitted via: OrangeCD 5.0
#
DISCID=c511320e
DTITLE=Santana - Sunflower
DYEAR=1988
DGENRE=Blues
TTITLE0=Everybody´s Everything
TTITLE1=Black Magic Woman
TTITLE2=Gypsy Queen
TTITLE3=Oye Como Va
TTITLE4=Samba Pa Ti
TTITLE5=Batuka
TTITLE6=No One to Depend On
TTITLE7=Spirits Dancing in the Flesh
TTITLE8=Healer
TTITLE9=Smooth Criminal
TTITLE10=Europa
TTITLE11=Cloud Nine
TTITLE12=Soul Sacrifice
TTITLE13=Once It´s Gotcha
EXTD=ID3G:   0
EXTT0=
EXTT1=
EXTT2=
EXTT3=
EXTT4=
EXTT5=
EXTT6=
EXTT7=
EXTT8=
EXTT9=
EXTT10=
EXTT11=
EXTT12=
EXTT13=
PLAYORDER=
